<svg width="29" height="9" viewBox="0 0 29 9" fill="none" xmlns="http://www.w3.org/2000/svg">
<path d="M1.62 8.64C1.324 8.64 1.052 8.568 0.804 8.424C0.556 8.28 0.36 8.084 0.216 7.836C0.0720001 7.588 0 7.316 0 7.02V1.62C0 1.324 0.0720001 1.052 0.216 0.804C0.36 0.556 0.556 0.36 0.804 0.216C1.052 0.072 1.324 0 1.62 0H7.02C7.316 0 7.584 0.072 7.824 0.216C8.072 0.36 8.268 0.556 8.412 0.804C8.564 1.052 8.64 1.324 8.64 1.62V7.02C8.64 7.316 8.564 7.588 8.412 7.836C8.268 8.084 8.072 8.28 7.824 8.424C7.584 8.568 7.316 8.64 7.02 8.64H1.62ZM1.656 7.188H6.972C7.028 7.188 7.076 7.168 7.116 7.128C7.164 7.088 7.188 7.036 7.188 6.972V1.668C7.188 1.604 7.164 1.552 7.116 1.512C7.076 1.472 7.028 1.452 6.972 1.452H1.656C1.6 1.452 1.548 1.472 1.5 1.512C1.46 1.552 1.44 1.604 1.44 1.668V6.972C1.44 7.036 1.46 7.088 1.5 7.128C1.548 7.168 1.6 7.188 1.656 7.188Z" fill="black"/>
<path d="M9.9855 8.64V0H17.0055C17.3015 0 17.5695 0.072 17.8095 0.216C18.0575 0.36 18.2535 0.556 18.3975 0.804C18.5495 1.052 18.6255 1.324 18.6255 1.62V7.02C18.6255 7.316 18.5495 7.588 18.3975 7.836C18.2535 8.084 18.0575 8.28 17.8095 8.424C17.5695 8.568 17.3015 8.64 17.0055 8.64H9.9855ZM11.6415 7.188H16.9575C17.0135 7.188 17.0615 7.168 17.1015 7.128C17.1495 7.088 17.1735 7.036 17.1735 6.972V1.668C17.1735 1.604 17.1495 1.552 17.1015 1.512C17.0615 1.472 17.0135 1.452 16.9575 1.452H11.6415C11.5775 1.452 11.5215 1.472 11.4735 1.512C11.4335 1.552 11.4135 1.604 11.4135 1.668V6.972C11.4135 7.036 11.4335 7.088 11.4735 7.128C11.5215 7.168 11.5775 7.188 11.6415 7.188Z" fill="black"/>
<path d="M19.8493 8.64V8.304L23.1853 4.32L19.8493 0.336V0H21.4573L24.1453 3.18L26.8213 0H28.4293V0.336L25.0813 4.32L28.4293 8.292V8.64H26.8213L24.1333 5.46L21.4573 8.64H19.8493Z" fill="black"/>
</svg>
